<svg id="bf56da8c-8cca-43a6-87a9-fb82241f83cd" data-name="Layer 2" xmlns="http://www.w3.org/2000/svg" viewBox="0 0 300 300"><defs><style>.ade29d0f-b9f9-4958-819f-3a6c31a8b481{fill:#fff;}</style></defs><path class="ade29d0f-b9f9-4958-819f-3a6c31a8b481" d="M293.08,112.86C279.77,61.53,238,19.93,186.65,6.79A149.65,149.65,0,0,0,68.22,27C82.13,34.11,92.7,46.65,99.89,60.53S111.57,82.78,115.1,98c9.2-2.53,11.2-3,16.3-3.79,5.26-.82,10.11-1.25,12.23-1.48,0,0-.59-2.08-1.14-4.16C136,63.7,125.26,44.5,110.77,23.27c-.48-.72-4.6-6.16-4.6-6.3,0-.39,4.51-1.84,5.55-2.16,50.76-15.73,94.43,1.5,126,27.63C284.12,80.92,293.92,156.63,275.8,195c.73-2.82-5.37-24-6.23-26.23-7.19-18.78-13.16-27-30.81-40.66-16.42-12.65-36.53-19.86-56.94-22.69a156.3,156.3,0,0,0-48.23,1,172.39,172.39,0,0,0-17.88,4.12q-4.9,1.39-9.8,2.38c-24.21,4.91-47.74,2.15-66.34-6.6L39,106A72.21,72.21,0,0,1,15.64,88.6a147.73,147.73,0,0,0,217,183.8C284,237.77,308.62,172.81,293.08,112.86ZM217.51,242.09c-10.77,10.85-22.74,17.87-36.77,24.11-14.79,6.59-31.3,7.43-47.18,7.14-31.56-.58-64.38-11.87-86.85-34.08-26.36-26-43.63-73.92-33.88-111.17.69.22,1.34.57,2,.84,20,7.95,40.31,13.56,61.35,13.73,29.3.23,56.93-12.79,86.39-11.13,25,1.41,51,11.34,65.31,32.89a60.07,60.07,0,0,1,7.6,16.29C242.18,203.5,233.43,226.05,217.51,242.09Z"/></svg>